<svg id="Layer_1" data-name="Layer 1" xmlns="http://www.w3.org/2000/svg" viewBox="0 0 97.0275 44.9009"><defs><style>.cls-1{fill:#353a57;}.cls-2{fill:#55678f;}.cls-3{fill:#fdfeff;}.cls-4{fill:#f5f5e3;}</style></defs><title>mark</title><path class="cls-1" d="M62.8405,16.3712c0-2.5979-.0325-5.1194.0156-7.6393A12.0487,12.0487,0,0,1,63.21,5.6213a8.0253,8.0253,0,0,1,15.59,1.21c.0724.4921.1435.9844.1727,1.1853,1.7691-.2278,3.5061-.7637,5.177-.6049A7.6854,7.6854,0,0,1,91.2066,15.09c.0417.9676.2607,1.381,1.2993,1.5958A5.9154,5.9154,0,0,1,97.0266,22.83a5.5872,5.5872,0,0,1-4.7841,5.4972c-.6578.1283-1.0269.306-1.0108,1.09A8.0453,8.0453,0,0,1,79.35,36.6614a1.8226,1.8226,0,0,0-.323-.078c-.0786.52-.1575,1.0348-.2341,1.55a8.02,8.02,0,0,1-15.9363-.951c-.0522-2.8354-.01-5.6725-.01-8.6134H35.3263c0,.41,0,.8232,0,1.2365-.0005,2.3751.0189,4.75-.0061,7.1253a8.0216,8.0216,0,0,1-15.9762.9885c-.0594-.421-.1138-.8426-.1881-1.3946a8.2046,8.2046,0,0,1-8.5532-.197c-2.7957-1.7813-3.8149-4.4936-3.6919-7.8338a6.5028,6.5028,0,0,1-5.7134-2.4772A5.8351,5.8351,0,0,1,.0043,22.1943c.1151-3.2421,2.1824-5.0463,6.8705-5.9009-.0566-3.1356.8827-5.8851,3.6747-7.6734a8.15,8.15,0,0,1,8.58-.229c.1365-.8445.2015-1.6215.3927-2.366A8.0246,8.0246,0,0,1,35.3181,7.9208c.0321,2.3747.0076,4.75.0084,7.1253,0,.4187,0,.8375,0,1.3251Zm3.744,6.0657c0,4.7876-.0111,9.5752.0053,14.3628a4.1294,4.1294,0,0,0,2.8438,4.1137,4.2692,4.2692,0,0,0,5.7276-4.2316c.0342-2.84-.0767-5.6805-.0716-8.5207.012-6.5769.0716-13.1537.0784-19.7306a4.37,4.37,0,0,0-4.3205-4.6673c-2.5355,0-4.2569,1.87-4.2619,4.6613Q66.5732,15.4307,66.5845,22.4369Zm-35.0039.0783c0-4.8241.0178-9.6483-.0084-14.4723a4.4653,4.4653,0,0,0-3.6636-4.24A4.1768,4.1768,0,0,0,23.293,6.5513,7.0893,7.0893,0,0,0,23.0043,8.73c.0046,4.4728.0738,8.9456.0733,13.4183,0,4.7453-.1007,9.491-.048,14.2353a6.2486,6.2486,0,0,0,.8071,2.96A4.0348,4.0348,0,0,0,28.5543,40.96a4.044,4.044,0,0,0,3.014-3.9721C31.5966,32.1635,31.5776,27.3393,31.5806,22.5152Zm55.9-.062q0-1.6909,0-3.3817c0-1.1661.0154-2.3325-.0026-3.4983a4.2809,4.2809,0,1,0-8.547.0075q-.0344,6.88,0,13.76a4.28,4.28,0,1,0,8.5449-.0076C87.5,27.04,87.4817,24.7465,87.4811,22.4532Zm-68.241.0109c0-2.2576.0112-4.5152-.0029-6.7726a4.3514,4.3514,0,0,0-4.3263-4.6442c-2.4784.02-4.2051,1.8692-4.2177,4.5913q-.0316,6.8308,0,13.6619c.0128,2.7051,1.7608,4.5563,4.2427,4.5691,2.5318.013,4.2791-1.8543,4.3018-4.6329C19.2563,26.9793,19.2417,24.7216,19.24,22.4641ZM62.7842,20.28h-27.38v4.3731h27.38ZM6.9083,20.2738a2.4787,2.4787,0,0,0-2.892,1.142,2.0008,2.0008,0,0,0,.2009,2.3854,2.3066,2.3066,0,0,0,2.6911.7783Zm84.3622,4.3344c1.3956-.2852,2.0536-1.0608,2.0123-2.2467a1.9906,1.9906,0,0,0-2.0123-1.9992Z"/><path class="cls-2" d="M66.5839,22.4369q-.0008-7.0062.0017-14.0124c.005-2.7912,1.7264-4.6617,4.2619-4.6613A4.37,4.37,0,0,1,75.168,8.4305c-.0068,6.5769-.0664,13.1537-.0784,19.7306-.0051,2.84.1058,5.6812.0716,8.5207a4.2692,4.2692,0,0,1-5.7276,4.2316A4.1294,4.1294,0,0,1,66.59,36.8C66.5734,32.0121,66.5845,27.2245,66.5839,22.4369Z"/><path class="cls-2" d="M31.5791,22.5152c-.0015,4.8241.0175,9.6483-.0108,14.4723a4.044,4.044,0,0,1-3.014,3.9721,4.0348,4.0348,0,0,1-4.7176-1.6159,6.2486,6.2486,0,0,1-.8071-2.96c-.0527-4.7443.0475-9.49.048-14.2353,0-4.4727-.0687-8.9455-.0733-13.4183a7.0893,7.0893,0,0,1,.2887-2.1784,4.1768,4.1768,0,0,1,4.6156-2.7481,4.4653,4.4653,0,0,1,3.6636,4.24C31.5984,12.8669,31.5806,17.6911,31.5791,22.5152Z"/><path class="cls-3" d="M87.4814,22.4532c0,2.2933.0188,4.5868-.0045,6.88a4.28,4.28,0,1,1-8.5449.0076q-.0366-6.88,0-13.76a4.2809,4.2809,0,1,1,8.547-.0075c.018,1.1658.0027,2.3322.0026,3.4983Q87.4811,20.7623,87.4814,22.4532Z"/><path class="cls-3" d="M19.2409,22.4641c.0008,2.2575.0154,4.5152-.0029,6.7726-.0227,2.7786-1.77,4.6459-4.3018,4.6329-2.4819-.0128-4.23-1.864-4.2427-4.5691q-.0324-6.8308,0-13.6619c.0126-2.7221,1.7393-4.571,4.2177-4.5913a4.3514,4.3514,0,0,1,4.3263,4.6442C19.2513,17.9489,19.24,20.2065,19.2409,22.4641Z"/><path class="cls-4" d="M62.7842,20.28v4.3731h-27.38V20.28Z"/><path class="cls-2" d="M6.9083,20.2738V24.58a2.3066,2.3066,0,0,1-2.6911-.7783,2.0008,2.0008,0,0,1-.2009-2.3854A2.4787,2.4787,0,0,1,6.9083,20.2738Z"/><path class="cls-2" d="M91.2705,24.6082V20.3623a1.9906,1.9906,0,0,1,2.0123,1.9992C93.3241,23.5474,92.6661,24.323,91.2705,24.6082Z"/></svg>