<svg id="Layer_1" data-name="Layer 1" xmlns="http://www.w3.org/2000/svg" viewBox="0 0 66.5856 30.8134"><defs><style>.cls-1{fill:#9cb4ff;}.cls-2{fill:#54668d;}.cls-3{fill:#48ff73;}.cls-4{fill:#5315ff;}.cls-5{fill:#002e7f;}.cls-6{fill:#ff4343;}.cls-7{fill:#9cff9c;}.cls-8{fill:#ffb3b3;}</style></defs><title>fitlit</title><path class="cls-1" d="M43.1246,11.2348c0-1.7828-.0223-3.5132.0107-5.2425a8.2712,8.2712,0,0,1,.2427-2.1346,5.5074,5.5074,0,0,1,10.6984.83c.05.3377.0984.6756.1185.8135a16.7131,16.7131,0,0,1,3.5527-.4151,5.274,5.274,0,0,1,4.8434,5.2689c.0286.664.1789.9477.8916,1.0951A4.06,4.06,0,0,1,66.585,15.667a3.8341,3.8341,0,0,1-3.2831,3.7724c-.4514.0881-.7048.21-.6937.7482a5.5211,5.5211,0,0,1-8.1536,4.9715,1.2444,1.2444,0,0,0-.2217-.0536c-.0539.3568-.1081.71-.1607,1.0637a5.5034,5.5034,0,0,1-10.9363-.6526c-.0359-1.9458-.0069-3.8928-.0069-5.911H24.2429v.8486c0,1.63.0129,3.26-.0042,4.89a5.5049,5.5049,0,0,1-10.9638.6784c-.0407-.2889-.078-.5782-.129-.957a5.6172,5.6172,0,0,1-8.4033-5.5112,4.4629,4.4629,0,0,1-3.9209-1.7A4.0047,4.0047,0,0,1,.0029,15.231c.079-2.225,1.4977-3.4631,4.715-4.05A5.66,5.66,0,0,1,7.24,5.9155a5.5933,5.5933,0,0,1,5.8882-.1572c.0937-.58.1383-1.1127.2695-1.6236a5.507,5.507,0,0,1,10.84,1.301c.022,1.63.0051,3.26.0057,4.89,0,.2874,0,.5748,0,.9094Zm2.5694,4.1626c0,3.2856-.0076,6.5711.0036,9.8566a2.8339,2.8339,0,0,0,1.9515,2.823A2.93,2.93,0,0,0,51.58,25.1731c.0235-1.9487-.0526-3.8983-.0491-5.8474.0083-4.5134.0492-9.0268.0538-13.54A2.9992,2.9992,0,0,0,48.62,2.5825a2.9124,2.9124,0,0,0-2.9248,3.1988Q45.6862,10.5894,45.694,15.3974Zm-24.0217.0538c0-3.3106.0122-6.6212-.0057-9.9317A3.0644,3.0644,0,0,0,19.1524,2.61a2.8663,2.8663,0,0,0-3.1675,1.8859,4.8669,4.8669,0,0,0-.1981,1.4949c.0032,3.0695.0507,6.1389.05,9.2084,0,3.2564-.0691,6.5132-.0329,9.769A4.2879,4.2879,0,0,0,16.3581,27a2.7688,2.7688,0,0,0,3.2374,1.109,2.7754,2.7754,0,0,0,2.0684-2.726C21.6833,22.0724,21.67,18.7617,21.6723,15.4512Zm38.3621-.0426q0-1.16,0-2.3207c0-.8.0106-1.6007-.0017-2.4007a2.9378,2.9378,0,1,0-5.8655.0052q-.0236,4.7213,0,9.4428a2.9371,2.9371,0,1,0,5.8639-.0052C60.0475,18.5564,60.0347,16.9824,60.0344,15.4086Zm-46.8308.0075c0-1.5493.0077-3.0986-.002-4.6478a2.986,2.986,0,0,0-2.9689-3.187,2.9065,2.9065,0,0,0-2.8944,3.1508q-.0217,4.6877,0,9.3755a2.94,2.94,0,1,0,5.8636-.0438C13.2148,18.5147,13.2047,16.9653,13.2036,15.4161ZM43.086,13.917h-18.79v3.001h18.79ZM4.7409,13.913a1.7009,1.7009,0,0,0-1.9847.7837,1.373,1.373,0,0,0,.1379,1.637,1.5828,1.5828,0,0,0,1.8468.5341Zm57.894,2.9745c.9576-.1957,1.4093-.7279,1.3809-1.5418a1.366,1.366,0,0,0-1.3809-1.372Z"/><path class="cls-2" d="M45.6936,15.3974q-.0006-4.8079.0011-9.6161A2.9124,2.9124,0,0,1,48.62,2.5825a2.9992,2.9992,0,0,1,2.9649,3.203c-.0046,4.5134-.0455,9.0268-.0538,13.54-.0035,1.9491.0726,3.8987.0491,5.8474a2.93,2.93,0,0,1-3.9306,2.9039,2.8339,2.8339,0,0,1-1.9515-2.823C45.6864,21.9685,45.694,18.683,45.6936,15.3974Z"/><path class="cls-3" d="M21.6713,15.4512c-.001,3.3105.012,6.6212-.0074,9.9316a2.7754,2.7754,0,0,1-2.0684,2.726A2.7688,2.7688,0,0,1,16.3581,27a4.2879,4.2879,0,0,1-.5539-2.0316c-.0362-3.2558.0326-6.5126.0329-9.769,0-3.0695-.0471-6.1389-.05-9.2084a4.8669,4.8669,0,0,1,.1981-1.4949A2.8663,2.8663,0,0,1,19.1524,2.61a3.0644,3.0644,0,0,1,2.5142,2.91C21.6845,8.83,21.6723,12.1406,21.6713,15.4512Z"/><path class="cls-4" d="M60.0346,15.4086c0,1.5738.0129,3.1478-.0032,4.7214a2.9371,2.9371,0,1,1-5.8639.0052q-.0251-4.7213,0-9.4428a2.9378,2.9378,0,1,1,5.8655-.0052c.0123.8.0018,1.6.0017,2.4007Q60.0343,14.2483,60.0346,15.4086Z"/><path class="cls-5" d="M13.2041,15.4161c.0006,1.5492.0107,3.0986-.002,4.6477a2.94,2.94,0,1,1-5.8636.0438q-.0223-4.6876,0-9.3755a2.9065,2.9065,0,0,1,2.8944-3.1508,2.986,2.986,0,0,1,2.9689,3.187C13.2113,12.3175,13.2036,13.8668,13.2041,15.4161Z"/><path class="cls-6" d="M43.086,13.917v3.001h-18.79V13.917Z"/><path class="cls-7" d="M4.7409,13.913v2.9548a1.5828,1.5828,0,0,1-1.8468-.5341,1.373,1.373,0,0,1-.1379-1.637A1.7009,1.7009,0,0,1,4.7409,13.913Z"/><path class="cls-8" d="M62.6349,16.8875V13.9737a1.366,1.366,0,0,1,1.3809,1.372C64.0442,16.16,63.5925,16.6918,62.6349,16.8875Z"/></svg>